<svg version="1.0" xmlns="http://www.w3.org/2000/svg" xmlns:xlink="http://www.w3.org/1999/xlink" fill="#362127" width="71.5" height="41" preserveAspectRatio="xMidYMid meet" color-interpolation-filters="sRGB" >
<g >
  <path d="M12.16-0.84L12.16-0.84Q7.41-0.84 4.29-6.44L4.29-6.44Q1.76-10.86 0.52-18.2L0.52-18.2Q-0.46-23.98-0.46-28.6L-0.46-28.6-0.46-32.5Q0.26-34.13 1.33-35.04 2.41-35.95 4.36-35.95L4.36-35.95Q6.89-35.95 8.58-33.15L8.58-33.15Q9.29-31.85 10.53-27.95L10.53-27.95Q11.38-25.16 12.16-25.16L12.16-25.16Q13.13-25.16 13.85-28.34L13.85-28.34Q14.76-32.7 15.54-34.13L15.54-34.13Q17.23-37.25 20.35-37.25L20.35-37.25Q23.66-37.25 25.16-33.8L25.16-33.8 25.16-30.36Q25.16-25.41 24.12-19.63L24.12-19.63Q22.75-11.77 20.15-6.96L20.15-6.96Q16.9-0.84 12.16-0.84ZM38.68 0.46L38.68 0.46Q33.02 0.46 29.22-3.25 25.42-6.96 24.77-12.54L24.77-12.54 24.77-18.66Q24.77-31.07 28.08-36.53L28.08-36.53Q30.62-40.76 35.17-40.76L35.17-40.76Q40.5-40.76 42.84-39.98L42.84-39.98Q46.87-38.61 46.87-34.65L46.87-34.65Q46.87-30.03 42.31-29.19L42.31-29.19 40.17-28.73Q37.77-28.14 37.77-26.85L37.77-26.85Q37.77-26.2 38.71-25.87 39.65-25.55 40.82-25.09 41.99-24.64 42.93-23.89 43.88-23.14 43.88-21.64L43.88-21.64Q43.88-20.35 43.32-19.5 42.77-18.66 41.96-18.1 41.15-17.55 40.17-17.13 39.2-16.71 38.38-16.28 37.57-15.86 37.02-15.28 36.47-14.69 36.47-13.85L36.47-13.85Q36.47-12.87 37.15-12.22 37.83-11.57 38.84-11.02 39.84-10.46 41.02-9.91 42.19-9.36 43.19-8.64 44.2-7.93 44.88-6.89 45.57-5.85 45.57-4.36L45.57-4.36Q45.57-1.76 43.29-0.52L43.29-0.52Q41.54 0.46 38.68 0.46ZM63.83-1.76L63.83-1.76Q56.88-1.76 51.68-6.53 46.48-11.31 46.48-17.75L46.48-17.75Q46.48-21.64 48.13-25.45 49.79-29.25 52.55-32.27 55.32-35.3 58.92-37.15 62.53-39 66.43-39L66.43-39Q68.71-39 69.75-37.38 70.79-35.75 70.79-33.8L70.79-33.8Q70.79-31.98 69.88-30.65 68.97-29.32 67.63-28.21 66.3-27.11 64.71-26.1 63.12-25.09 61.78-23.92 60.45-22.75 59.54-21.29 58.63-19.82 58.63-17.75L58.63-17.75Q58.63-16.12 59.38-15.15 60.13-14.17 61.23-13.49 62.34-12.8 63.6-12.29 64.87-11.77 65.98-11.05 67.08-10.34 67.83-9.29 68.58-8.26 68.58-6.5L68.58-6.5Q68.58-1.76 63.83-1.76Z" transform="translate(0.46000000834465027, 40.7599983215332)"></path>
</g>
</svg>